# MagicaVoxel @ Ephtracy

# group
o 

# material
mtllib world1_1.mtl
usemtl palette

# normals
vn -1 0 0
vn 1 0 0
vn 0 0 1
vn 0 0 -1
vn 0 -1 0
vn 0 1 0

# texcoords
vt 0.216797 0.5
vt 0.302734 0.5
vt 0.310547 0.5
vt 0.748047 0.5
vt 0.955078 0.5

# verts
v -12.8 0 12.8
v -12.8 0 -12.8
v -12.8 0.4 12.8
v -12.8 0.4 6.4
v -12.8 0.8 12.8
v -12.8 0.8 6.4
v -12.8 1.2 6.4
v -12.8 1.2 -0.4
v -12.8 1.6 6.4
v -12.8 1.6 -0.4
v -12.8 1.6 -12.8
v -12.8 2 -0.4
v -12.8 2 -12.8
v -0.8 1.6 -0.799999
v -0.8 1.6 -12.4
v -0.8 2 -0.799999
v -0.8 2 -12.4
v -0.400001 2 -0.4
v -0.400001 2 -12.8
v -0.400001 2.4 -0.4
v -0.400001 2.4 -12.8
v 0.4 0.4 12.4
v 0.4 0.4 6.8
v 0.4 0.8 12.4
v 0.4 0.8 6.8
v 0.799999 0.8 12.8
v 0.799999 0.8 6.4
v 0.799999 1.2 12.8
v 0.799999 1.2 6.4
v 11.2 2 -11.2
v 11.2 2 -12.4
v 11.2 2.4 -11.2
v 11.2 2.4 -12.4
v 12.4 0.8 12.4
v 12.4 0.8 6.8
v 12.4 1.2 12.4
v 12.4 1.2 6.8
v 12.4 1.2 6
v 12.4 1.2 0
v 12.4 1.6 6
v 12.4 1.6 0
v 12.4 2 -0.799999
v 12.4 2 -11.2
v 12.4 2.4 -0.799999
v 12.4 2.4 -11.2
v -12.4 1.2 6
v -12.4 1.2 0
v -12.4 1.6 6
v -12.4 1.6 0
v -12.4 1.6 -0.799999
v -12.4 1.6 -12.4
v -12.4 2 -0.799999
v -12.4 2 -12.4
v -10.4 0.4 12.4
v -10.4 0.4 6.8
v -10.4 0.8 12.4
v -10.4 0.8 6.8
v 0 2 -0.799999
v 0 2 -12.4
v 0 2.4 -0.799999
v 0 2.4 -12.4
v 1.2 0.8 12.4
v 1.2 0.8 6.8
v 1.2 1.2 12.4
v 1.2 1.2 6.8
v 12.8 0 12.8
v 12.8 0 -12.8
v 12.8 0.8 12.8
v 12.8 0.8 6.4
v 12.8 1.2 12.8
v 12.8 1.2 6.4
v 12.8 1.2 -0.4
v 12.8 1.6 6.4
v 12.8 1.6 -0.4
v 12.8 1.6 -12.8
v 12.8 2.4 -0.4
v 12.8 2.4 -12.8
v -12.8 0 12.8
v -12.8 0.4 12.8
v -12.8 0.8 12.8
v 0.799999 0.4 12.8
v 0.799999 0.8 12.8
v 0.799999 1.2 12.8
v 12.8 0 12.8
v 12.8 0.8 12.8
v 12.8 1.2 12.8
v -10.4 0.4 6.8
v -10.4 0.8 6.8
v 0.4 0.4 6.8
v 0.4 0.8 6.8
v 1.2 0.8 6.8
v 1.2 1.2 6.8
v 12.4 0.8 6.8
v 12.4 1.2 6.8
v -12.8 0.8 6.4
v -12.8 1.2 6.4
v -12.8 1.6 6.4
v 0.799999 0.8 6.4
v 0.799999 1.2 6.4
v 12.8 1.2 6.4
v 12.8 1.6 6.4
v -12.4 1.2 0
v -12.4 1.6 0
v 12.4 1.2 0
v 12.4 1.6 0
v -12.8 1.6 -0.4
v -12.8 2 -0.4
v -0.400001 2 -0.4
v -0.400001 2.4 -0.4
v 12.8 1.6 -0.4
v 12.8 2.4 -0.4
v 11.2 2 -11.2
v 11.2 2.4 -11.2
v 12.4 2 -11.2
v 12.4 2.4 -11.2
v -12.4 1.6 -12.4
v -12.4 2 -12.4
v -0.8 1.6 -12.4
v -0.8 2 -12.4
v 0 2 -12.4
v 0 2.4 -12.4
v 11.2 2 -12.4
v 11.2 2.4 -12.4
v -10.4 0.4 12.4
v -10.4 0.8 12.4
v 0.4 0.4 12.4
v 0.4 0.8 12.4
v 1.2 0.8 12.4
v 1.2 1.2 12.4
v 12.4 0.8 12.4
v 12.4 1.2 12.4
v -12.4 1.2 6
v -12.4 1.6 6
v 12.4 1.2 6
v 12.4 1.6 6
v -12.4 1.6 -0.799999
v -12.4 2 -0.799999
v -0.8 1.6 -0.799999
v -0.8 2 -0.799999
v 0 2 -0.799999
v 0 2.4 -0.799999
v 12.4 2 -0.799999
v 12.4 2.4 -0.799999
v -12.8 0 -12.8
v -12.8 1.6 -12.8
v -12.8 2 -12.8
v -0.400001 2 -12.8
v -0.400001 2.4 -12.8
v 12.8 0 -12.8
v 12.8 1.6 -12.8
v 12.8 2.4 -12.8
v -12.8 0 12.8
v 12.8 0 12.8
v -10.4 0 12.4
v 0.4 0 12.4
v -10.4 0 6.8
v 0.4 0 6.8
v -12.8 0 -12.8
v 12.8 0 -12.8
v -10.4 0.4 12.4
v 0.4 0.4 12.4
v -10.4 0.4 6.8
v 0.4 0.4 6.8
v -12.8 0.8 12.8
v 0.799999 0.8 12.8
v -10.4 0.8 12.4
v 0.4 0.8 12.4
v 1.2 0.8 12.4
v 12.4 0.8 12.4
v -12.4 0.8 12
v -11.2 0.8 12
v -12 0.8 11.6
v -11.6 0.8 11.6
v -12 0.8 11.2
v -11.6 0.8 11.2
v -12.4 0.8 10.8
v -11.2 0.8 10.8
v -10.4 0.8 6.8
v 0.4 0.8 6.8
v 1.2 0.8 6.8
v 12.4 0.8 6.8
v -12.8 0.8 6.4
v 0.799999 0.8 6.4
v 0.799999 1.2 12.8
v 12.8 1.2 12.8
v 1.2 1.2 12.4
v 12.4 1.2 12.4
v 1.2 1.2 6.8
v 12.4 1.2 6.8
v 0.799999 1.2 6.4
v 12.8 1.2 6.4
v -12.4 1.2 6
v 12.4 1.2 6
v -12.4 1.2 0
v 12.4 1.2 0
v -12.8 1.6 6.4
v 12.8 1.6 6.4
v -12.4 1.6 6
v 12.4 1.6 6
v -12.4 1.6 0
v 12.4 1.6 0
v -12.8 1.6 -0.4
v 12.8 1.6 -0.4
v -12.4 1.6 -0.799999
v -0.8 1.6 -0.799999
v -12.4 1.6 -12.4
v -0.8 1.6 -12.4
v -12.8 2 -0.4
v -0.400001 2 -0.4
v -12.4 2 -0.799999
v -0.8 2 -0.799999
v 0 2 -0.799999
v 12.4 2 -0.799999
v 11.2 2 -11.2
v 12.4 2 -11.2
v -12.4 2 -12.4
v -0.8 2 -12.4
v 0 2 -12.4
v 11.2 2 -12.4
v -12.8 2 -12.8
v -0.400001 2 -12.8
v -0.400001 2.4 -0.4
v 12.8 2.4 -0.4
v 0 2.4 -0.799999
v 12.4 2.4 -0.799999
v 11.2 2.4 -11.2
v 12.4 2.4 -11.2
v 0 2.4 -12.4
v 11.2 2.4 -12.4
v -0.400001 2.4 -12.8
v 12.8 2.4 -12.8

# faces
f 3/3/1 2/3/1 1/3/1
f 4/3/1 2/3/1 3/3/1
f 5/5/1 4/5/1 3/5/1
f 6/3/1 2/3/1 4/3/1
f 6/5/1 4/5/1 5/5/1
f 7/3/1 2/3/1 6/3/1
f 8/3/1 2/3/1 7/3/1
f 9/5/1 8/5/1 7/5/1
f 10/3/1 2/3/1 8/3/1
f 10/5/1 8/5/1 9/5/1
f 11/3/1 2/3/1 10/3/1
f 12/5/1 11/5/1 10/5/1
f 13/5/1 11/5/1 12/5/1
f 16/5/1 15/5/1 14/5/1
f 17/5/1 15/5/1 16/5/1
f 20/5/1 19/5/1 18/5/1
f 21/5/1 19/5/1 20/5/1
f 24/5/1 23/5/1 22/5/1
f 25/5/1 23/5/1 24/5/1
f 28/5/1 27/5/1 26/5/1
f 29/5/1 27/5/1 28/5/1
f 32/5/1 31/5/1 30/5/1
f 33/5/1 31/5/1 32/5/1
f 36/5/1 35/5/1 34/5/1
f 37/5/1 35/5/1 36/5/1
f 40/5/1 39/5/1 38/5/1
f 41/5/1 39/5/1 40/5/1
f 44/5/1 43/5/1 42/5/1
f 45/5/1 43/5/1 44/5/1
f 46/5/2 47/5/2 48/5/2
f 48/5/2 47/5/2 49/5/2
f 50/5/2 51/5/2 52/5/2
f 52/5/2 51/5/2 53/5/2
f 54/5/2 55/5/2 56/5/2
f 56/5/2 55/5/2 57/5/2
f 58/5/2 59/5/2 60/5/2
f 60/5/2 59/5/2 61/5/2
f 62/5/2 63/5/2 64/5/2
f 64/5/2 63/5/2 65/5/2
f 66/3/2 67/3/2 68/3/2
f 68/3/2 67/3/2 69/3/2
f 68/5/2 69/5/2 70/5/2
f 69/3/2 67/3/2 71/3/2
f 70/5/2 69/5/2 71/5/2
f 71/3/2 67/3/2 72/3/2
f 71/5/2 72/5/2 73/5/2
f 72/3/2 67/3/2 74/3/2
f 73/5/2 72/5/2 74/5/2
f 74/3/2 67/3/2 75/3/2
f 74/5/2 75/5/2 76/5/2
f 76/5/2 75/5/2 77/5/2
f 81/3/3 79/3/3 78/3/3
f 81/5/3 80/5/3 79/5/3
f 82/5/3 80/5/3 81/5/3
f 84/3/3 81/3/3 78/3/3
f 84/3/3 82/3/3 81/3/3
f 85/5/3 83/5/3 82/5/3
f 85/3/3 82/3/3 84/3/3
f 86/5/3 83/5/3 85/5/3
f 89/5/3 88/5/3 87/5/3
f 90/5/3 88/5/3 89/5/3
f 93/5/3 92/5/3 91/5/3
f 94/5/3 92/5/3 93/5/3
f 98/3/3 96/3/3 95/3/3
f 99/5/3 97/5/3 96/5/3
f 99/3/3 96/3/3 98/3/3
f 100/5/3 97/5/3 99/5/3
f 101/5/3 97/5/3 100/5/3
f 104/5/3 103/5/3 102/5/3
f 105/5/3 103/5/3 104/5/3
f 108/5/3 107/5/3 106/5/3
f 110/5/3 108/5/3 106/5/3
f 110/5/3 109/5/3 108/5/3
f 111/5/3 109/5/3 110/5/3
f 114/5/3 113/5/3 112/5/3
f 115/5/3 113/5/3 114/5/3
f 118/5/3 117/5/3 116/5/3
f 119/5/3 117/5/3 118/5/3
f 122/5/3 121/5/3 120/5/3
f 123/5/3 121/5/3 122/5/3
f 124/5/4 125/5/4 126/5/4
f 126/5/4 125/5/4 127/5/4
f 128/5/4 129/5/4 130/5/4
f 130/5/4 129/5/4 131/5/4
f 132/5/4 133/5/4 134/5/4
f 134/5/4 133/5/4 135/5/4
f 136/5/4 137/5/4 138/5/4
f 138/5/4 137/5/4 139/5/4
f 140/5/4 141/5/4 142/5/4
f 142/5/4 141/5/4 143/5/4
f 145/5/4 146/5/4 147/5/4
f 144/3/4 145/3/4 149/3/4
f 147/5/4 148/5/4 150/5/4
f 149/3/4 145/3/4 150/3/4
f 145/5/4 147/5/4 150/5/4
f 150/5/4 148/5/4 151/5/4
f 154/3/5 153/3/5 152/3/5
f 155/3/5 153/3/5 154/3/5
f 156/3/5 154/3/5 152/3/5
f 156/4/5 155/4/5 154/4/5
f 157/3/5 153/3/5 155/3/5
f 157/4/5 155/4/5 156/4/5
f 158/3/5 156/3/5 152/3/5
f 158/3/5 157/3/5 156/3/5
f 159/3/5 153/3/5 157/3/5
f 159/3/5 157/3/5 158/3/5
f 160/4/6 161/4/6 162/4/6
f 162/4/6 161/4/6 163/4/6
f 164/5/6 165/5/6 166/5/6
f 166/5/6 165/5/6 167/5/6
f 164/5/6 166/5/6 170/5/6
f 170/5/6 166/5/6 171/5/6
f 170/1/6 171/1/6 172/1/6
f 172/1/6 171/1/6 173/1/6
f 170/1/6 172/1/6 174/1/6
f 172/2/6 173/2/6 174/2/6
f 173/1/6 171/1/6 175/1/6
f 174/2/6 173/2/6 175/2/6
f 164/5/6 170/5/6 176/5/6
f 170/1/6 174/1/6 176/1/6
f 174/1/6 175/1/6 176/1/6
f 175/1/6 171/1/6 177/1/6
f 176/1/6 175/1/6 177/1/6
f 171/5/6 166/5/6 177/5/6
f 176/5/6 177/5/6 178/5/6
f 177/5/6 166/5/6 178/5/6
f 167/5/6 165/5/6 179/5/6
f 168/4/6 169/4/6 180/4/6
f 180/4/6 169/4/6 181/4/6
f 178/5/6 179/5/6 182/5/6
f 176/5/6 178/5/6 182/5/6
f 164/5/6 176/5/6 182/5/6
f 179/5/6 165/5/6 183/5/6
f 182/5/6 179/5/6 183/5/6
f 184/5/6 185/5/6 186/5/6
f 186/5/6 185/5/6 187/5/6
f 184/5/6 186/5/6 188/5/6
f 187/5/6 185/5/6 189/5/6
f 184/5/6 188/5/6 190/5/6
f 188/5/6 189/5/6 190/5/6
f 189/5/6 185/5/6 191/5/6
f 190/5/6 189/5/6 191/5/6
f 192/4/6 193/4/6 194/4/6
f 194/4/6 193/4/6 195/4/6
f 196/5/6 197/5/6 198/5/6
f 198/5/6 197/5/6 199/5/6
f 196/5/6 198/5/6 200/5/6
f 199/5/6 197/5/6 201/5/6
f 196/5/6 200/5/6 202/5/6
f 200/5/6 201/5/6 202/5/6
f 201/5/6 197/5/6 203/5/6
f 202/5/6 201/5/6 203/5/6
f 204/4/6 205/4/6 206/4/6
f 206/4/6 205/4/6 207/4/6
f 208/5/6 209/5/6 210/5/6
f 210/5/6 209/5/6 211/5/6
f 212/4/6 213/4/6 214/4/6
f 214/4/6 213/4/6 215/4/6
f 208/5/6 210/5/6 216/5/6
f 211/5/6 209/5/6 217/5/6
f 212/4/6 214/4/6 218/4/6
f 218/4/6 214/4/6 219/4/6
f 208/5/6 216/5/6 220/5/6
f 216/5/6 217/5/6 220/5/6
f 217/5/6 209/5/6 221/5/6
f 220/5/6 217/5/6 221/5/6
f 222/5/6 223/5/6 224/5/6
f 224/5/6 223/5/6 225/5/6
f 225/5/6 223/5/6 227/5/6
f 222/5/6 224/5/6 228/5/6
f 226/5/6 227/5/6 229/5/6
f 222/5/6 228/5/6 230/5/6
f 228/5/6 229/5/6 230/5/6
f 229/5/6 227/5/6 231/5/6
f 230/5/6 229/5/6 231/5/6
f 227/5/6 223/5/6 231/5/6
