# MagicaVoxel @ Ephtracy

# group
o 

# material
mtllib 1.mtl
usemtl palette

# normals
vn -1 0 0
vn 1 0 0
vn 0 0 1
vn 0 0 -1
vn 0 -1 0
vn 0 1 0

# texcoords
vt 0.310547 0.5
vt 0.748047 0.5
vt 0.955078 0.5

# verts
v -5.4 0 2.8
v -5.4 0 -2.8
v -5.4 0.4 2.8
v -5.4 0.4 -2.8
v 5.4 0 2.8
v 5.4 0 -2.8
v 5.4 0.4 2.8
v 5.4 0.4 -2.8
v -5.4 0 2.8
v -5.4 0.4 2.8
v -2.6 0 2.8
v -2.6 0.4 2.8
v -2.2 0 2.8
v -2.2 0.4 2.8
v 1 0 2.8
v 1 0.4 2.8
v 1.4 0 2.8
v 1.4 0.4 2.8
v 5.4 0 2.8
v 5.4 0.4 2.8
v -5.4 0 -2.8
v -5.4 0.4 -2.8
v -0.6 0 -2.8
v -0.6 0.4 -2.8
v -0.2 0 -2.8
v -0.2 0.4 -2.8
v 5.4 0 -2.8
v 5.4 0.4 -2.8
v -5.4 0 2.8
v -2.6 0 2.8
v -2.2 0 2.8
v 1 0 2.8
v 1.4 0 2.8
v 5.4 0 2.8
v 1 0 2.4
v 1.4 0 2.4
v 2.2 0 2.4
v 2.6 0 2.4
v 2.2 0 2
v 2.6 0 2
v -2.6 0 0.8
v -2.2 0 0.8
v 1 0 0.4
v 1.4 0 0.4
v 1 0 -2.38419e-07
v 1.4 0 -2.38419e-07
v -0.6 0 -0.4
v -0.2 0 -0.4
v -3 0 -0.8
v -2.6 0 -0.8
v -1 0 -0.8
v -0.6 0 -0.8
v -0.2 0 -0.8
v -3 0 -1.2
v -2.6 0 -1.2
v -1 0 -1.2
v -0.6 0 -1.2
v 2.6 0 -1.2
v 3 0 -1.2
v -0.2 0 -1.6
v 0.2 0 -1.6
v 2.2 0 -1.6
v 2.6 0 -1.6
v 3 0 -1.6
v -0.2 0 -2
v 0.2 0 -2
v 2.2 0 -2
v 2.6 0 -2
v -0.6 0 -2.4
v -0.2 0 -2.4
v -5.4 0 -2.8
v -0.6 0 -2.8
v -0.2 0 -2.8
v 5.4 0 -2.8
v -5.4 0.4 2.8
v -2.6 0.4 2.8
v -2.2 0.4 2.8
v 1 0.4 2.8
v 1.4 0.4 2.8
v 5.4 0.4 2.8
v 1 0.4 2.4
v 1.4 0.4 2.4
v 2.2 0.4 2.4
v 2.6 0.4 2.4
v 2.2 0.4 2
v 2.6 0.4 2
v -2.6 0.4 0.8
v -2.2 0.4 0.8
v 1 0.4 0.4
v 1.4 0.4 0.4
v 1 0.4 -2.38419e-07
v 1.4 0.4 -2.38419e-07
v -0.6 0.4 -0.4
v -0.2 0.4 -0.4
v -3 0.4 -0.8
v -2.6 0.4 -0.8
v -1 0.4 -0.8
v -0.6 0.4 -0.8
v -0.2 0.4 -0.8
v -3 0.4 -1.2
v -2.6 0.4 -1.2
v -1 0.4 -1.2
v -0.6 0.4 -1.2
v 2.6 0.4 -1.2
v 3 0.4 -1.2
v -0.2 0.4 -1.6
v 0.2 0.4 -1.6
v 2.2 0.4 -1.6
v 2.6 0.4 -1.6
v 3 0.4 -1.6
v -0.2 0.4 -2
v 0.2 0.4 -2
v 2.2 0.4 -2
v 2.6 0.4 -2
v -0.6 0.4 -2.4
v -0.2 0.4 -2.4
v -5.4 0.4 -2.8
v -0.6 0.4 -2.8
v -0.2 0.4 -2.8
v 5.4 0.4 -2.8

# faces
f 3/2/1 2/2/1 1/2/1
f 4/2/1 2/2/1 3/2/1
f 5/2/2 6/2/2 7/2/2
f 7/2/2 6/2/2 8/2/2
f 11/2/3 10/2/3 9/2/3
f 12/2/3 10/2/3 11/2/3
f 13/1/3 12/1/3 11/1/3
f 14/1/3 12/1/3 13/1/3
f 15/2/3 14/2/3 13/2/3
f 16/2/3 14/2/3 15/2/3
f 17/3/3 16/3/3 15/3/3
f 18/3/3 16/3/3 17/3/3
f 19/2/3 18/2/3 17/2/3
f 20/2/3 18/2/3 19/2/3
f 21/2/4 22/2/4 23/2/4
f 23/2/4 22/2/4 24/2/4
f 23/1/4 24/1/4 25/1/4
f 25/1/4 24/1/4 26/1/4
f 25/2/4 26/2/4 27/2/4
f 27/2/4 26/2/4 28/2/4
f 35/2/5 32/2/5 31/2/5
f 35/3/5 33/3/5 32/3/5
f 36/2/5 34/2/5 33/2/5
f 36/3/5 33/3/5 35/3/5
f 37/2/5 34/2/5 36/2/5
f 38/2/5 34/2/5 37/2/5
f 39/2/5 36/2/5 35/2/5
f 39/2/5 37/2/5 36/2/5
f 39/1/5 38/1/5 37/1/5
f 40/2/5 34/2/5 38/2/5
f 40/1/5 38/1/5 39/1/5
f 41/2/5 30/2/5 29/2/5
f 41/1/5 31/1/5 30/1/5
f 42/2/5 40/2/5 39/2/5
f 42/1/5 31/1/5 41/1/5
f 42/2/5 35/2/5 31/2/5
f 42/2/5 39/2/5 35/2/5
f 43/2/5 42/2/5 41/2/5
f 43/2/5 40/2/5 42/2/5
f 44/2/5 40/2/5 43/2/5
f 45/2/5 43/2/5 41/2/5
f 45/3/5 44/3/5 43/3/5
f 46/2/5 40/2/5 44/2/5
f 46/3/5 44/3/5 45/3/5
f 47/2/5 45/2/5 41/2/5
f 47/2/5 46/2/5 45/2/5
f 48/2/5 46/2/5 47/2/5
f 49/2/5 41/2/5 29/2/5
f 49/2/5 47/2/5 41/2/5
f 50/2/5 47/2/5 49/2/5
f 51/2/5 47/2/5 50/2/5
f 52/1/5 48/1/5 47/1/5
f 52/2/5 47/2/5 51/2/5
f 53/2/5 46/2/5 48/2/5
f 53/1/5 48/1/5 52/1/5
f 54/2/5 49/2/5 29/2/5
f 54/1/5 50/1/5 49/1/5
f 55/2/5 51/2/5 50/2/5
f 55/1/5 50/1/5 54/1/5
f 56/1/5 52/1/5 51/1/5
f 56/2/5 51/2/5 55/2/5
f 57/2/5 53/2/5 52/2/5
f 57/1/5 52/1/5 56/1/5
f 58/2/5 34/2/5 40/2/5
f 58/2/5 53/2/5 57/2/5
f 58/2/5 40/2/5 46/2/5
f 58/2/5 46/2/5 53/2/5
f 59/2/5 34/2/5 58/2/5
f 60/2/5 57/2/5 56/2/5
f 60/2/5 55/2/5 54/2/5
f 60/2/5 56/2/5 55/2/5
f 60/2/5 58/2/5 57/2/5
f 61/2/5 58/2/5 60/2/5
f 62/2/5 58/2/5 61/2/5
f 63/1/5 59/1/5 58/1/5
f 63/2/5 58/2/5 62/2/5
f 64/2/5 34/2/5 59/2/5
f 64/1/5 59/1/5 63/1/5
f 65/2/5 60/2/5 54/2/5
f 65/3/5 61/3/5 60/3/5
f 66/2/5 62/2/5 61/2/5
f 66/3/5 61/3/5 65/3/5
f 67/1/5 63/1/5 62/1/5
f 67/2/5 62/2/5 66/2/5
f 68/2/5 64/2/5 63/2/5
f 68/1/5 63/1/5 67/1/5
f 69/2/5 66/2/5 65/2/5
f 69/2/5 65/2/5 54/2/5
f 69/2/5 68/2/5 67/2/5
f 69/2/5 67/2/5 66/2/5
f 70/2/5 68/2/5 69/2/5
f 71/2/5 54/2/5 29/2/5
f 71/2/5 69/2/5 54/2/5
f 72/1/5 70/1/5 69/1/5
f 72/2/5 69/2/5 71/2/5
f 73/2/5 68/2/5 70/2/5
f 73/1/5 70/1/5 72/1/5
f 74/2/5 64/2/5 68/2/5
f 74/2/5 68/2/5 73/2/5
f 74/2/5 34/2/5 64/2/5
f 77/2/6 78/2/6 81/2/6
f 78/3/6 79/3/6 81/3/6
f 79/2/6 80/2/6 82/2/6
f 81/3/6 79/3/6 82/3/6
f 82/2/6 80/2/6 83/2/6
f 83/2/6 80/2/6 84/2/6
f 81/2/6 82/2/6 85/2/6
f 82/2/6 83/2/6 85/2/6
f 83/1/6 84/1/6 85/1/6
f 84/2/6 80/2/6 86/2/6
f 85/1/6 84/1/6 86/1/6
f 75/2/6 76/2/6 87/2/6
f 76/1/6 77/1/6 87/1/6
f 85/2/6 86/2/6 88/2/6
f 87/1/6 77/1/6 88/1/6
f 77/2/6 81/2/6 88/2/6
f 81/2/6 85/2/6 88/2/6
f 87/2/6 88/2/6 89/2/6
f 88/2/6 86/2/6 89/2/6
f 89/2/6 86/2/6 90/2/6
f 87/2/6 89/2/6 91/2/6
f 89/3/6 90/3/6 91/3/6
f 90/2/6 86/2/6 92/2/6
f 91/3/6 90/3/6 92/3/6
f 87/2/6 91/2/6 93/2/6
f 91/2/6 92/2/6 93/2/6
f 93/2/6 92/2/6 94/2/6
f 75/2/6 87/2/6 95/2/6
f 87/2/6 93/2/6 95/2/6
f 95/2/6 93/2/6 96/2/6
f 96/2/6 93/2/6 97/2/6
f 93/1/6 94/1/6 98/1/6
f 97/2/6 93/2/6 98/2/6
f 94/2/6 92/2/6 99/2/6
f 98/1/6 94/1/6 99/1/6
f 75/2/6 95/2/6 100/2/6
f 95/1/6 96/1/6 100/1/6
f 96/2/6 97/2/6 101/2/6
f 100/1/6 96/1/6 101/1/6
f 97/1/6 98/1/6 102/1/6
f 101/2/6 97/2/6 102/2/6
f 98/2/6 99/2/6 103/2/6
f 102/1/6 98/1/6 103/1/6
f 86/2/6 80/2/6 104/2/6
f 103/2/6 99/2/6 104/2/6
f 92/2/6 86/2/6 104/2/6
f 99/2/6 92/2/6 104/2/6
f 104/2/6 80/2/6 105/2/6
f 102/2/6 103/2/6 106/2/6
f 100/2/6 101/2/6 106/2/6
f 101/2/6 102/2/6 106/2/6
f 103/2/6 104/2/6 106/2/6
f 106/2/6 104/2/6 107/2/6
f 107/2/6 104/2/6 108/2/6
f 104/1/6 105/1/6 109/1/6
f 108/2/6 104/2/6 109/2/6
f 105/2/6 80/2/6 110/2/6
f 109/1/6 105/1/6 110/1/6
f 100/2/6 106/2/6 111/2/6
f 106/3/6 107/3/6 111/3/6
f 107/2/6 108/2/6 112/2/6
f 111/3/6 107/3/6 112/3/6
f 108/1/6 109/1/6 113/1/6
f 112/2/6 108/2/6 113/2/6
f 109/2/6 110/2/6 114/2/6
f 113/1/6 109/1/6 114/1/6
f 111/2/6 112/2/6 115/2/6
f 100/2/6 111/2/6 115/2/6
f 113/2/6 114/2/6 115/2/6
f 112/2/6 113/2/6 115/2/6
f 115/2/6 114/2/6 116/2/6
f 75/2/6 100/2/6 117/2/6
f 100/2/6 115/2/6 117/2/6
f 115/1/6 116/1/6 118/1/6
f 117/2/6 115/2/6 118/2/6
f 116/2/6 114/2/6 119/2/6
f 118/1/6 116/1/6 119/1/6
f 114/2/6 110/2/6 120/2/6
f 119/2/6 114/2/6 120/2/6
f 110/2/6 80/2/6 120/2/6
