# MagicaVoxel @ Ephtracy

# group
o 

# material
mtllib 4.mtl
usemtl palette

# normals
vn -1 0 0
vn 1 0 0
vn 0 0 1
vn 0 0 -1
vn 0 -1 0
vn 0 1 0

# texcoords
vt 0.748047 0.5
vt 0.955078 0.5

# verts
v -5.8 0.2 5.8
v -5.8 0.2 -0.2
v -5.8 0.2 -0.6
v -5.8 0.2 -5.8
v -5.8 0.6 5.8
v -5.8 0.6 -0.2
v -5.8 0.6 -0.6
v -5.8 0.6 -5.8
v -5.4 0.2 -0.2
v -5.4 0.2 -0.6
v -5.4 0.6 -0.2
v -5.4 0.6 -0.6
v -3 0.2 -2.6
v -3 0.2 -3
v -3 0.6 -2.6
v -3 0.6 -3
v -1.4 0.2 5
v -1.4 0.2 4.6
v -1.4 0.2 3.4
v -1.4 0.2 3
v -1.4 0.6 5
v -1.4 0.6 4.6
v -1.4 0.6 3.4
v -1.4 0.6 3
v -1 0.2 0.2
v -1 0.2 -0.2
v -1 0.6 0.2
v -1 0.6 -0.2
v 0.6 0.2 3.8
v 0.6 0.2 3.4
v 0.6 0.2 -5
v 0.6 0.2 -5.4
v 0.6 0.6 3.8
v 0.6 0.6 3.4
v 0.6 0.6 -5
v 0.6 0.6 -5.4
v 2.6 0.2 4.6
v 2.6 0.2 4.2
v 2.6 0.6 4.6
v 2.6 0.6 4.2
v 3.8 0.2 -2.2
v 3.8 0.2 -2.6
v 3.8 0.6 -2.2
v 3.8 0.6 -2.6
v 4.6 0.2 2.2
v 4.6 0.2 1.8
v 4.6 0.6 2.2
v 4.6 0.6 1.8
v -3.4 0.2 -2.6
v -3.4 0.2 -3
v -3.4 0.6 -2.6
v -3.4 0.6 -3
v -1.8 0.2 5
v -1.8 0.2 4.6
v -1.8 0.2 3.4
v -1.8 0.2 3
v -1.8 0.6 5
v -1.8 0.6 4.6
v -1.8 0.6 3.4
v -1.8 0.6 3
v -1.4 0.2 0.2
v -1.4 0.2 -0.2
v -1.4 0.6 0.2
v -1.4 0.6 -0.2
v 0.2 0.2 3.8
v 0.2 0.2 3.4
v 0.2 0.2 -5
v 0.2 0.2 -5.4
v 0.2 0.6 3.8
v 0.2 0.6 3.4
v 0.2 0.6 -5
v 0.2 0.6 -5.4
v 2.2 0.2 4.6
v 2.2 0.2 4.2
v 2.2 0.6 4.6
v 2.2 0.6 4.2
v 3.4 0.2 -2.2
v 3.4 0.2 -2.6
v 3.4 0.6 -2.2
v 3.4 0.6 -2.6
v 4.2 0.2 2.2
v 4.2 0.2 1.8
v 4.2 0.6 2.2
v 4.2 0.6 1.8
v 5.8 0.2 5.8
v 5.8 0.2 -5.8
v 5.8 0.6 5.8
v 5.8 0.6 -5.8
v -5.8 0.2 5.8
v -5.8 0.6 5.8
v 5.8 0.2 5.8
v 5.8 0.6 5.8
v -1.8 0.2 4.6
v -1.8 0.6 4.6
v -1.4 0.2 4.6
v -1.4 0.6 4.6
v 2.2 0.2 4.2
v 2.2 0.6 4.2
v 2.6 0.2 4.2
v 2.6 0.6 4.2
v 0.2 0.2 3.4
v 0.2 0.6 3.4
v 0.6 0.2 3.4
v 0.6 0.6 3.4
v -1.8 0.2 3
v -1.8 0.6 3
v -1.4 0.2 3
v -1.4 0.6 3
v 4.2 0.2 1.8
v 4.2 0.6 1.8
v 4.6 0.2 1.8
v 4.6 0.6 1.8
v -1.4 0.2 -0.2
v -1.4 0.6 -0.2
v -1 0.2 -0.2
v -1 0.6 -0.2
v -5.8 0.2 -0.6
v -5.8 0.6 -0.6
v -5.4 0.2 -0.6
v -5.4 0.6 -0.6
v 3.4 0.2 -2.6
v 3.4 0.6 -2.6
v 3.8 0.2 -2.6
v 3.8 0.6 -2.6
v -3.4 0.2 -3
v -3.4 0.6 -3
v -3 0.2 -3
v -3 0.6 -3
v 0.2 0.2 -5.4
v 0.2 0.6 -5.4
v 0.6 0.2 -5.4
v 0.6 0.6 -5.4
v -1.8 0.2 5
v -1.8 0.6 5
v -1.4 0.2 5
v -1.4 0.6 5
v 2.2 0.2 4.6
v 2.2 0.6 4.6
v 2.6 0.2 4.6
v 2.6 0.6 4.6
v 0.2 0.2 3.8
v 0.2 0.6 3.8
v 0.6 0.2 3.8
v 0.6 0.6 3.8
v -1.8 0.2 3.4
v -1.8 0.6 3.4
v -1.4 0.2 3.4
v -1.4 0.6 3.4
v 4.2 0.2 2.2
v 4.2 0.6 2.2
v 4.6 0.2 2.2
v 4.6 0.6 2.2
v -1.4 0.2 0.2
v -1.4 0.6 0.2
v -1 0.2 0.2
v -1 0.6 0.2
v -5.8 0.2 -0.2
v -5.8 0.6 -0.2
v -5.4 0.2 -0.2
v -5.4 0.6 -0.2
v 3.4 0.2 -2.2
v 3.4 0.6 -2.2
v 3.8 0.2 -2.2
v 3.8 0.6 -2.2
v -3.4 0.2 -2.6
v -3.4 0.6 -2.6
v -3 0.2 -2.6
v -3 0.6 -2.6
v 0.2 0.2 -5
v 0.2 0.6 -5
v 0.6 0.2 -5
v 0.6 0.6 -5
v -5.8 0.2 -5.8
v -5.8 0.6 -5.8
v 4.6 0.2 -5.8
v 4.6 0.6 -5.8
v 5 0.2 -5.8
v 5 0.6 -5.8
v 5.8 0.2 -5.8
v 5.8 0.6 -5.8
v -5.8 0.2 5.8
v 5.8 0.2 5.8
v 3.4 0.2 5.4
v 3.8 0.2 5.4
v -1.8 0.2 5
v -1.4 0.2 5
v 3.4 0.2 5
v 3.8 0.2 5
v 5 0.2 5
v 5.4 0.2 5
v -2.6 0.2 4.6
v -2.2 0.2 4.6
v -1.8 0.2 4.6
v -1.4 0.2 4.6
v 1 0.2 4.6
v 1.4 0.2 4.6
v 2.2 0.2 4.6
v 2.6 0.2 4.6
v 5 0.2 4.6
v 5.4 0.2 4.6
v -2.6 0.2 4.2
v -2.2 0.2 4.2
v 1 0.2 4.2
v 1.4 0.2 4.2
v 2.2 0.2 4.2
v 2.6 0.2 4.2
v -0.6 0.2 3.8
v -0.2 0.2 3.8
v 0.2 0.2 3.8
v 0.6 0.2 3.8
v 2.2 0.2 3.8
v 2.6 0.2 3.8
v 3.8 0.2 3.8
v 4.2 0.2 3.8
v -4.2 0.2 3.4
v -3.8 0.2 3.4
v -1.8 0.2 3.4
v -1.4 0.2 3.4
v -0.6 0.2 3.4
v -0.2 0.2 3.4
v 0.2 0.2 3.4
v 0.6 0.2 3.4
v 1.4 0.2 3.4
v 1.8 0.2 3.4
v 3.8 0.2 3.4
v 4.2 0.2 3.4
v -4.2 0.2 3
v -3.8 0.2 3
v -2.2 0.2 3
v -1.8 0.2 3
v -1.4 0.2 3
v 1.4 0.2 3
v 1.8 0.2 3
v -2.2 0.2 2.6
v -1.8 0.2 2.6
v 4.2 0.2 2.2
v 4.6 0.2 2.2
v 4.2 0.2 1.8
v 4.6 0.2 1.8
v -3.8 0.2 0.6
v -3.4 0.2 0.6
v -5.4 0.2 0.2
v -5 0.2 0.2
v -3.8 0.2 0.2
v -3.4 0.2 0.2
v -1.4 0.2 0.2
v -1 0.2 0.2
v -5.8 0.2 -0.2
v -5.4 0.2 -0.2
v -5 0.2 -0.2
v -1.4 0.2 -0.2
v -1 0.2 -0.2
v -5.8 0.2 -0.6
v -5.4 0.2 -0.6
v 3.4 0.2 -0.6
v 3.8 0.2 -0.6
v 3.4 0.2 -1
v 3.8 0.2 -1
v -0.2 0.2 -1.4
v 0.2 0.2 -1.4
v -2.6 0.2 -1.8
v -2.2 0.2 -1.8
v -0.2 0.2 -1.8
v 0.2 0.2 -1.8
v -2.6 0.2 -2.2
v -2.2 0.2 -2.2
v 3.4 0.2 -2.2
v 3.8 0.2 -2.2
v -3.4 0.2 -2.6
v -3 0.2 -2.6
v 2.6 0.2 -2.6
v 3 0.2 -2.6
v 3.4 0.2 -2.6
v 3.8 0.2 -2.6
v -3.4 0.2 -3
v -3 0.2 -3
v 1 0.2 -3
v 1.4 0.2 -3
v 2.6 0.2 -3
v 3 0.2 -3
v 1 0.2 -3.4
v 1.4 0.2 -3.4
v -4.2 0.2 -3.8
v -3.8 0.2 -3.8
v -4.2 0.2 -4.2
v -3.8 0.2 -4.2
v -0.6 0.2 -4.2
v -0.2 0.2 -4.2
v 2.2 0.2 -4.2
v 2.6 0.2 -4.2
v -0.6 0.2 -4.6
v -0.2 0.2 -4.6
v 2.2 0.2 -4.6
v 2.6 0.2 -4.6
v 0.2 0.2 -5
v 0.6 0.2 -5
v 0.2 0.2 -5.4
v 0.6 0.2 -5.4
v 4.6 0.2 -5.4
v 5 0.2 -5.4
v -5.8 0.2 -5.8
v 4.6 0.2 -5.8
v 5 0.2 -5.8
v 5.8 0.2 -5.8
v -5.8 0.6 5.8
v 5.8 0.6 5.8
v 3.4 0.6 5.4
v 3.8 0.6 5.4
v -1.8 0.6 5
v -1.4 0.6 5
v 3.4 0.6 5
v 3.8 0.6 5
v 5 0.6 5
v 5.4 0.6 5
v -2.6 0.6 4.6
v -2.2 0.6 4.6
v -1.8 0.6 4.6
v -1.4 0.6 4.6
v 1 0.6 4.6
v 1.4 0.6 4.6
v 2.2 0.6 4.6
v 2.6 0.6 4.6
v 5 0.6 4.6
v 5.4 0.6 4.6
v -2.6 0.6 4.2
v -2.2 0.6 4.2
v 1 0.6 4.2
v 1.4 0.6 4.2
v 2.2 0.6 4.2
v 2.6 0.6 4.2
v -0.6 0.6 3.8
v -0.2 0.6 3.8
v 0.2 0.6 3.8
v 0.6 0.6 3.8
v 2.2 0.6 3.8
v 2.6 0.6 3.8
v 3.8 0.6 3.8
v 4.2 0.6 3.8
v -4.2 0.6 3.4
v -3.8 0.6 3.4
v -1.8 0.6 3.4
v -1.4 0.6 3.4
v -0.6 0.6 3.4
v -0.2 0.6 3.4
v 0.2 0.6 3.4
v 0.6 0.6 3.4
v 1.4 0.6 3.4
v 1.8 0.6 3.4
v 3.8 0.6 3.4
v 4.2 0.6 3.4
v -4.2 0.6 3
v -3.8 0.6 3
v -2.2 0.6 3
v -1.8 0.6 3
v -1.4 0.6 3
v 1.4 0.6 3
v 1.8 0.6 3
v -2.2 0.6 2.6
v -1.8 0.6 2.6
v 4.2 0.6 2.2
v 4.6 0.6 2.2
v 4.2 0.6 1.8
v 4.6 0.6 1.8
v -3.8 0.6 0.6
v -3.4 0.6 0.6
v -5.4 0.6 0.2
v -5 0.6 0.2
v -3.8 0.6 0.2
v -3.4 0.6 0.2
v -1.4 0.6 0.2
v -1 0.6 0.2
v -5.8 0.6 -0.2
v -5.4 0.6 -0.2
v -5 0.6 -0.2
v -1.4 0.6 -0.2
v -1 0.6 -0.2
v -5.8 0.6 -0.6
v -5.4 0.6 -0.6
v 3.4 0.6 -0.6
v 3.8 0.6 -0.6
v 3.4 0.6 -1
v 3.8 0.6 -1
v -0.2 0.6 -1.4
v 0.2 0.6 -1.4
v -2.6 0.6 -1.8
v -2.2 0.6 -1.8
v -0.2 0.6 -1.8
v 0.2 0.6 -1.8
v -2.6 0.6 -2.2
v -2.2 0.6 -2.2
v 3.4 0.6 -2.2
v 3.8 0.6 -2.2
v -3.4 0.6 -2.6
v -3 0.6 -2.6
v 2.6 0.6 -2.6
v 3 0.6 -2.6
v 3.4 0.6 -2.6
v 3.8 0.6 -2.6
v -3.4 0.6 -3
v -3 0.6 -3
v 1 0.6 -3
v 1.4 0.6 -3
v 2.6 0.6 -3
v 3 0.6 -3
v 1 0.6 -3.4
v 1.4 0.6 -3.4
v -4.2 0.6 -3.8
v -3.8 0.6 -3.8
v -4.2 0.6 -4.2
v -3.8 0.6 -4.2
v -0.6 0.6 -4.2
v -0.2 0.6 -4.2
v 2.2 0.6 -4.2
v 2.6 0.6 -4.2
v -0.6 0.6 -4.6
v -0.2 0.6 -4.6
v 2.2 0.6 -4.6
v 2.6 0.6 -4.6
v 0.2 0.6 -5
v 0.6 0.6 -5
v 0.2 0.6 -5.4
v 0.6 0.6 -5.4
v 4.6 0.6 -5.4
v 5 0.6 -5.4
v -5.8 0.6 -5.8
v 4.6 0.6 -5.8
v 5 0.6 -5.8
v 5.8 0.6 -5.8

# faces
f 5/1/1 2/1/1 1/1/1
f 6/1/1 2/1/1 5/1/1
f 7/1/1 4/1/1 3/1/1
f 8/1/1 4/1/1 7/1/1
f 11/1/1 10/1/1 9/1/1
f 12/1/1 10/1/1 11/1/1
f 15/1/1 14/1/1 13/1/1
f 16/1/1 14/1/1 15/1/1
f 21/1/1 18/1/1 17/1/1
f 22/1/1 18/1/1 21/1/1
f 23/1/1 20/1/1 19/1/1
f 24/1/1 20/1/1 23/1/1
f 27/1/1 26/1/1 25/1/1
f 28/1/1 26/1/1 27/1/1
f 33/1/1 30/1/1 29/1/1
f 34/1/1 30/1/1 33/1/1
f 35/1/1 32/1/1 31/1/1
f 36/1/1 32/1/1 35/1/1
f 39/1/1 38/1/1 37/1/1
f 40/1/1 38/1/1 39/1/1
f 43/1/1 42/1/1 41/1/1
f 44/1/1 42/1/1 43/1/1
f 47/1/1 46/1/1 45/1/1
f 48/1/1 46/1/1 47/1/1
f 49/1/2 50/1/2 51/1/2
f 51/1/2 50/1/2 52/1/2
f 53/1/2 54/1/2 57/1/2
f 57/1/2 54/1/2 58/1/2
f 55/1/2 56/1/2 59/1/2
f 59/1/2 56/1/2 60/1/2
f 61/1/2 62/1/2 63/1/2
f 63/1/2 62/1/2 64/1/2
f 65/1/2 66/1/2 69/1/2
f 69/1/2 66/1/2 70/1/2
f 67/1/2 68/1/2 71/1/2
f 71/1/2 68/1/2 72/1/2
f 73/1/2 74/1/2 75/1/2
f 75/1/2 74/1/2 76/1/2
f 77/1/2 78/1/2 79/1/2
f 79/1/2 78/1/2 80/1/2
f 81/1/2 82/1/2 83/1/2
f 83/1/2 82/1/2 84/1/2
f 85/1/2 86/1/2 87/1/2
f 87/1/2 86/1/2 88/1/2
f 91/1/3 90/1/3 89/1/3
f 92/1/3 90/1/3 91/1/3
f 95/1/3 94/1/3 93/1/3
f 96/1/3 94/1/3 95/1/3
f 99/2/3 98/2/3 97/2/3
f 100/2/3 98/2/3 99/2/3
f 103/1/3 102/1/3 101/1/3
f 104/1/3 102/1/3 103/1/3
f 107/1/3 106/1/3 105/1/3
f 108/1/3 106/1/3 107/1/3
f 111/1/3 110/1/3 109/1/3
f 112/1/3 110/1/3 111/1/3
f 115/1/3 114/1/3 113/1/3
f 116/1/3 114/1/3 115/1/3
f 119/1/3 118/1/3 117/1/3
f 120/1/3 118/1/3 119/1/3
f 123/1/3 122/1/3 121/1/3
f 124/1/3 122/1/3 123/1/3
f 127/1/3 126/1/3 125/1/3
f 128/1/3 126/1/3 127/1/3
f 131/1/3 130/1/3 129/1/3
f 132/1/3 130/1/3 131/1/3
f 133/1/4 134/1/4 135/1/4
f 135/1/4 134/1/4 136/1/4
f 137/1/4 138/1/4 139/1/4
f 139/1/4 138/1/4 140/1/4
f 141/1/4 142/1/4 143/1/4
f 143/1/4 142/1/4 144/1/4
f 145/1/4 146/1/4 147/1/4
f 147/1/4 146/1/4 148/1/4
f 149/1/4 150/1/4 151/1/4
f 151/1/4 150/1/4 152/1/4
f 153/1/4 154/1/4 155/1/4
f 155/1/4 154/1/4 156/1/4
f 157/1/4 158/1/4 159/1/4
f 159/1/4 158/1/4 160/1/4
f 161/1/4 162/1/4 163/1/4
f 163/1/4 162/1/4 164/1/4
f 165/1/4 166/1/4 167/1/4
f 167/1/4 166/1/4 168/1/4
f 169/1/4 170/1/4 171/1/4
f 171/1/4 170/1/4 172/1/4
f 173/1/4 174/1/4 175/1/4
f 175/1/4 174/1/4 176/1/4
f 175/2/4 176/2/4 177/2/4
f 177/2/4 176/2/4 178/2/4
f 177/1/4 178/1/4 179/1/4
f 179/1/4 178/1/4 180/1/4
f 183/1/5 182/1/5 181/1/5
f 184/1/5 182/1/5 183/1/5
f 185/1/5 183/1/5 181/1/5
f 186/1/5 183/1/5 185/1/5
f 187/2/5 184/2/5 183/2/5
f 187/1/5 183/1/5 186/1/5
f 188/1/5 182/1/5 184/1/5
f 188/2/5 184/2/5 187/2/5
f 189/1/5 182/1/5 188/1/5
f 190/1/5 182/1/5 189/1/5
f 191/1/5 185/1/5 181/1/5
f 192/1/5 185/1/5 191/1/5
f 193/1/5 185/1/5 192/1/5
f 194/1/5 187/1/5 186/1/5
f 194/1/5 188/1/5 187/1/5
f 194/1/5 189/1/5 188/1/5
f 195/1/5 189/1/5 194/1/5
f 196/1/5 189/1/5 195/1/5
f 197/1/5 189/1/5 196/1/5
f 198/1/5 189/1/5 197/1/5
f 199/2/5 190/2/5 189/2/5
f 199/1/5 189/1/5 198/1/5
f 200/1/5 182/1/5 190/1/5
f 200/2/5 190/2/5 199/2/5
f 201/2/5 192/2/5 191/2/5
f 201/1/5 191/1/5 181/1/5
f 202/1/5 193/1/5 192/1/5
f 202/2/5 192/2/5 201/2/5
f 202/1/5 194/1/5 193/1/5
f 202/1/5 195/1/5 194/1/5
f 203/2/5 196/2/5 195/2/5
f 203/1/5 195/1/5 202/1/5
f 204/1/5 197/1/5 196/1/5
f 204/2/5 196/2/5 203/2/5
f 205/1/5 197/1/5 204/1/5
f 206/1/5 199/1/5 198/1/5
f 206/1/5 200/1/5 199/1/5
f 207/1/5 205/1/5 204/1/5
f 207/1/5 204/1/5 203/1/5
f 207/1/5 203/1/5 202/1/5
f 207/1/5 202/1/5 201/1/5
f 208/1/5 205/1/5 207/1/5
f 209/1/5 205/1/5 208/1/5
f 210/1/5 205/1/5 209/1/5
f 211/2/5 206/2/5 205/2/5
f 211/1/5 205/1/5 210/1/5
f 212/1/5 200/1/5 206/1/5
f 212/2/5 206/2/5 211/2/5
f 213/1/5 200/1/5 212/1/5
f 214/1/5 200/1/5 213/1/5
f 215/1/5 201/1/5 181/1/5
f 215/1/5 207/1/5 201/1/5
f 216/1/5 207/1/5 215/1/5
f 217/1/5 207/1/5 216/1/5
f 218/1/5 207/1/5 217/1/5
f 219/2/5 208/2/5 207/2/5
f 219/1/5 207/1/5 218/1/5
f 220/1/5 209/1/5 208/1/5
f 220/2/5 208/2/5 219/2/5
f 221/1/5 209/1/5 220/1/5
f 222/1/5 211/1/5 210/1/5
f 222/1/5 213/1/5 212/1/5
f 222/1/5 212/1/5 211/1/5
f 223/1/5 213/1/5 222/1/5
f 224/1/5 213/1/5 223/1/5
f 225/2/5 214/2/5 213/2/5
f 225/1/5 213/1/5 224/1/5
f 226/1/5 200/1/5 214/1/5
f 226/2/5 214/2/5 225/2/5
f 227/1/5 215/1/5 181/1/5
f 227/2/5 216/2/5 215/2/5
f 228/1/5 217/1/5 216/1/5
f 228/2/5 216/2/5 227/2/5
f 229/1/5 217/1/5 228/1/5
f 230/1/5 217/1/5 229/1/5
f 231/1/5 221/1/5 220/1/5
f 231/1/5 220/1/5 219/1/5
f 231/1/5 219/1/5 218/1/5
f 231/1/5 223/1/5 222/1/5
f 231/1/5 222/1/5 221/1/5
f 232/2/5 224/2/5 223/2/5
f 232/1/5 223/1/5 231/1/5
f 233/1/5 225/1/5 224/1/5
f 233/2/5 224/2/5 232/2/5
f 233/1/5 226/1/5 225/1/5
f 234/2/5 230/2/5 229/2/5
f 234/1/5 229/1/5 228/1/5
f 234/1/5 228/1/5 227/1/5
f 235/1/5 232/1/5 231/1/5
f 235/2/5 230/2/5 234/2/5
f 235/1/5 231/1/5 230/1/5
f 235/1/5 233/1/5 232/1/5
f 236/1/5 226/1/5 233/1/5
f 236/1/5 233/1/5 235/1/5
f 236/1/5 235/1/5 234/1/5
f 236/1/5 200/1/5 226/1/5
f 237/1/5 200/1/5 236/1/5
f 238/1/5 236/1/5 234/1/5
f 239/1/5 200/1/5 237/1/5
f 240/1/5 234/1/5 227/1/5
f 240/1/5 239/1/5 238/1/5
f 240/1/5 238/1/5 234/1/5
f 241/1/5 239/1/5 240/1/5
f 242/1/5 227/1/5 181/1/5
f 242/1/5 240/1/5 227/1/5
f 243/1/5 240/1/5 242/1/5
f 244/2/5 241/2/5 240/2/5
f 244/1/5 240/1/5 243/1/5
f 245/1/5 239/1/5 241/1/5
f 245/2/5 241/2/5 244/2/5
f 246/1/5 239/1/5 245/1/5
f 247/1/5 239/1/5 246/1/5
f 248/1/5 242/1/5 181/1/5
f 249/2/5 243/2/5 242/2/5
f 249/1/5 242/1/5 248/1/5
f 250/1/5 244/1/5 243/1/5
f 250/2/5 243/2/5 249/2/5
f 250/1/5 245/1/5 244/1/5
f 250/1/5 246/1/5 245/1/5
f 251/1/5 246/1/5 250/1/5
f 252/1/5 239/1/5 247/1/5
f 254/1/5 252/1/5 251/1/5
f 254/1/5 251/1/5 250/1/5
f 254/1/5 250/1/5 249/1/5
f 255/1/5 239/1/5 252/1/5
f 255/1/5 252/1/5 254/1/5
f 256/1/5 239/1/5 255/1/5
f 257/1/5 254/1/5 253/1/5
f 257/1/5 255/1/5 254/1/5
f 257/2/5 256/2/5 255/2/5
f 258/1/5 239/1/5 256/1/5
f 258/2/5 256/2/5 257/2/5
f 259/1/5 257/1/5 253/1/5
f 259/1/5 258/1/5 257/1/5
f 260/1/5 258/1/5 259/1/5
f 261/1/5 259/1/5 253/1/5
f 262/1/5 259/1/5 261/1/5
f 263/2/5 260/2/5 259/2/5
f 263/1/5 259/1/5 262/1/5
f 264/1/5 258/1/5 260/1/5
f 264/2/5 260/2/5 263/2/5
f 265/2/5 262/2/5 261/2/5
f 265/1/5 261/1/5 253/1/5
f 266/1/5 263/1/5 262/1/5
f 266/2/5 262/2/5 265/2/5
f 266/1/5 264/1/5 263/1/5
f 267/1/5 258/1/5 264/1/5
f 267/1/5 264/1/5 266/1/5
f 268/1/5 239/1/5 258/1/5
f 268/1/5 258/1/5 267/1/5
f 269/1/5 267/1/5 266/1/5
f 269/1/5 265/1/5 253/1/5
f 269/1/5 266/1/5 265/1/5
f 270/1/5 267/1/5 269/1/5
f 271/1/5 267/1/5 270/1/5
f 272/1/5 267/1/5 271/1/5
f 273/1/5 267/1/5 272/1/5
f 274/1/5 239/1/5 268/1/5
f 275/1/5 269/1/5 253/1/5
f 276/1/5 271/1/5 270/1/5
f 277/1/5 271/1/5 276/1/5
f 278/1/5 271/1/5 277/1/5
f 279/2/5 272/2/5 271/2/5
f 279/1/5 271/1/5 278/1/5
f 280/1/5 273/1/5 272/1/5
f 280/2/5 272/2/5 279/2/5
f 280/1/5 274/1/5 273/1/5
f 281/1/5 277/1/5 276/1/5
f 281/2/5 278/2/5 277/2/5
f 281/1/5 276/1/5 275/1/5
f 282/1/5 279/1/5 278/1/5
f 282/2/5 278/2/5 281/2/5
f 282/1/5 280/1/5 279/1/5
f 283/1/5 281/1/5 275/1/5
f 283/1/5 275/1/5 253/1/5
f 283/1/5 282/1/5 281/1/5
f 284/1/5 282/1/5 283/1/5
f 285/1/5 283/1/5 253/1/5
f 285/2/5 284/2/5 283/2/5
f 286/1/5 282/1/5 284/1/5
f 286/2/5 284/2/5 285/2/5
f 287/1/5 282/1/5 286/1/5
f 288/1/5 282/1/5 287/1/5
f 289/1/5 280/1/5 282/1/5
f 289/1/5 282/1/5 288/1/5
f 290/1/5 280/1/5 289/1/5
f 291/2/5 288/2/5 287/2/5
f 291/1/5 286/1/5 285/1/5
f 291/1/5 287/1/5 286/1/5
f 292/1/5 289/1/5 288/1/5
f 292/2/5 288/2/5 291/2/5
f 293/2/5 290/2/5 289/2/5
f 293/1/5 289/1/5 292/1/5
f 294/1/5 280/1/5 290/1/5
f 294/2/5 290/2/5 293/2/5
f 295/1/5 293/1/5 292/1/5
f 295/1/5 292/1/5 291/1/5
f 295/1/5 294/1/5 293/1/5
f 296/1/5 294/1/5 295/1/5
f 297/1/5 295/1/5 291/1/5
f 298/1/5 294/1/5 296/1/5
f 299/1/5 200/1/5 239/1/5
f 299/1/5 280/1/5 294/1/5
f 299/1/5 294/1/5 298/1/5
f 299/1/5 274/1/5 280/1/5
f 299/1/5 239/1/5 274/1/5
f 300/1/5 200/1/5 299/1/5
f 301/1/5 298/1/5 297/1/5
f 301/1/5 297/1/5 291/1/5
f 301/1/5 291/1/5 285/1/5
f 301/1/5 299/1/5 298/1/5
f 301/1/5 285/1/5 253/1/5
f 302/2/5 300/2/5 299/2/5
f 302/1/5 299/1/5 301/1/5
f 303/1/5 200/1/5 300/1/5
f 303/2/5 300/2/5 302/2/5
f 304/1/5 182/1/5 200/1/5
f 304/1/5 200/1/5 303/1/5
f 305/1/6 306/1/6 307/1/6
f 307/1/6 306/1/6 308/1/6
f 305/1/6 307/1/6 309/1/6
f 309/1/6 307/1/6 310/1/6
f 307/2/6 308/2/6 311/2/6
f 310/1/6 307/1/6 311/1/6
f 308/1/6 306/1/6 312/1/6
f 311/2/6 308/2/6 312/2/6
f 312/1/6 306/1/6 313/1/6
f 313/1/6 306/1/6 314/1/6
f 305/1/6 309/1/6 315/1/6
f 315/1/6 309/1/6 316/1/6
f 316/1/6 309/1/6 317/1/6
f 310/1/6 311/1/6 318/1/6
f 311/1/6 312/1/6 318/1/6
f 312/1/6 313/1/6 318/1/6
f 318/1/6 313/1/6 319/1/6
f 319/1/6 313/1/6 320/1/6
f 320/1/6 313/1/6 321/1/6
f 321/1/6 313/1/6 322/1/6
f 313/2/6 314/2/6 323/2/6
f 322/1/6 313/1/6 323/1/6
f 314/1/6 306/1/6 324/1/6
f 323/2/6 314/2/6 324/2/6
f 315/2/6 316/2/6 325/2/6
f 305/1/6 315/1/6 325/1/6
f 316/1/6 317/1/6 326/1/6
f 325/2/6 316/2/6 326/2/6
f 317/1/6 318/1/6 326/1/6
f 318/1/6 319/1/6 326/1/6
f 319/2/6 320/2/6 327/2/6
f 326/1/6 319/1/6 327/1/6
f 320/1/6 321/1/6 328/1/6
f 327/2/6 320/2/6 328/2/6
f 328/1/6 321/1/6 329/1/6
f 322/1/6 323/1/6 330/1/6
f 323/1/6 324/1/6 330/1/6
f 328/1/6 329/1/6 331/1/6
f 327/1/6 328/1/6 331/1/6
f 326/1/6 327/1/6 331/1/6
f 325/1/6 326/1/6 331/1/6
f 331/1/6 329/1/6 332/1/6
f 332/1/6 329/1/6 333/1/6
f 333/1/6 329/1/6 334/1/6
f 329/2/6 330/2/6 335/2/6
f 334/1/6 329/1/6 335/1/6
f 330/1/6 324/1/6 336/1/6
f 335/2/6 330/2/6 336/2/6
f 336/1/6 324/1/6 337/1/6
f 337/1/6 324/1/6 338/1/6
f 305/1/6 325/1/6 339/1/6
f 325/1/6 331/1/6 339/1/6
f 339/1/6 331/1/6 340/1/6
f 340/1/6 331/1/6 341/1/6
f 341/1/6 331/1/6 342/1/6
f 331/2/6 332/2/6 343/2/6
f 342/1/6 331/1/6 343/1/6
f 332/1/6 333/1/6 344/1/6
f 343/2/6 332/2/6 344/2/6
f 344/1/6 333/1/6 345/1/6
f 334/1/6 335/1/6 346/1/6
f 336/1/6 337/1/6 346/1/6
f 335/1/6 336/1/6 346/1/6
f 346/1/6 337/1/6 347/1/6
f 347/1/6 337/1/6 348/1/6
f 337/2/6 338/2/6 349/2/6
f 348/1/6 337/1/6 349/1/6
f 338/1/6 324/1/6 350/1/6
f 349/2/6 338/2/6 350/2/6
f 305/1/6 339/1/6 351/1/6
f 339/2/6 340/2/6 351/2/6
f 340/1/6 341/1/6 352/1/6
f 351/2/6 340/2/6 352/2/6
f 352/1/6 341/1/6 353/1/6
f 353/1/6 341/1/6 354/1/6
f 344/1/6 345/1/6 355/1/6
f 343/1/6 344/1/6 355/1/6
f 342/1/6 343/1/6 355/1/6
f 346/1/6 347/1/6 355/1/6
f 345/1/6 346/1/6 355/1/6
f 347/2/6 348/2/6 356/2/6
f 355/1/6 347/1/6 356/1/6
f 348/1/6 349/1/6 357/1/6
f 356/2/6 348/2/6 357/2/6
f 349/1/6 350/1/6 357/1/6
f 353/2/6 354/2/6 358/2/6
f 352/1/6 353/1/6 358/1/6
f 351/1/6 352/1/6 358/1/6
f 355/1/6 356/1/6 359/1/6
f 358/2/6 354/2/6 359/2/6
f 354/1/6 355/1/6 359/1/6
f 356/1/6 357/1/6 359/1/6
f 357/1/6 350/1/6 360/1/6
f 359/1/6 357/1/6 360/1/6
f 358/1/6 359/1/6 360/1/6
f 350/1/6 324/1/6 360/1/6
f 360/1/6 324/1/6 361/1/6
f 358/1/6 360/1/6 362/1/6
f 361/1/6 324/1/6 363/1/6
f 351/1/6 358/1/6 364/1/6
f 362/1/6 363/1/6 364/1/6
f 358/1/6 362/1/6 364/1/6
f 364/1/6 363/1/6 365/1/6
f 305/1/6 351/1/6 366/1/6
f 351/1/6 364/1/6 366/1/6
f 366/1/6 364/1/6 367/1/6
f 364/2/6 365/2/6 368/2/6
f 367/1/6 364/1/6 368/1/6
f 365/1/6 363/1/6 369/1/6
f 368/2/6 365/2/6 369/2/6
f 369/1/6 363/1/6 370/1/6
f 370/1/6 363/1/6 371/1/6
f 305/1/6 366/1/6 372/1/6
f 366/2/6 367/2/6 373/2/6
f 372/1/6 366/1/6 373/1/6
f 367/1/6 368/1/6 374/1/6
f 373/2/6 367/2/6 374/2/6
f 368/1/6 369/1/6 374/1/6
f 369/1/6 370/1/6 374/1/6
f 374/1/6 370/1/6 375/1/6
f 371/1/6 363/1/6 376/1/6
f 375/1/6 376/1/6 378/1/6
f 374/1/6 375/1/6 378/1/6
f 373/1/6 374/1/6 378/1/6
f 376/1/6 363/1/6 379/1/6
f 378/1/6 376/1/6 379/1/6
f 379/1/6 363/1/6 380/1/6
f 377/1/6 378/1/6 381/1/6
f 378/1/6 379/1/6 381/1/6
f 379/2/6 380/2/6 381/2/6
f 380/1/6 363/1/6 382/1/6
f 381/2/6 380/2/6 382/2/6
f 377/1/6 381/1/6 383/1/6
f 381/1/6 382/1/6 383/1/6
f 383/1/6 382/1/6 384/1/6
f 377/1/6 383/1/6 385/1/6
f 385/1/6 383/1/6 386/1/6
f 383/2/6 384/2/6 387/2/6
f 386/1/6 383/1/6 387/1/6
f 384/1/6 382/1/6 388/1/6
f 387/2/6 384/2/6 388/2/6
f 385/2/6 386/2/6 389/2/6
f 377/1/6 385/1/6 389/1/6
f 386/1/6 387/1/6 390/1/6
f 389/2/6 386/2/6 390/2/6
f 387/1/6 388/1/6 390/1/6
f 388/1/6 382/1/6 391/1/6
f 390/1/6 388/1/6 391/1/6
f 382/1/6 363/1/6 392/1/6
f 391/1/6 382/1/6 392/1/6
f 390/1/6 391/1/6 393/1/6
f 377/1/6 389/1/6 393/1/6
f 389/1/6 390/1/6 393/1/6
f 393/1/6 391/1/6 394/1/6
f 394/1/6 391/1/6 395/1/6
f 395/1/6 391/1/6 396/1/6
f 396/1/6 391/1/6 397/1/6
f 392/1/6 363/1/6 398/1/6
f 377/1/6 393/1/6 399/1/6
f 394/1/6 395/1/6 400/1/6
f 400/1/6 395/1/6 401/1/6
f 401/1/6 395/1/6 402/1/6
f 395/2/6 396/2/6 403/2/6
f 402/1/6 395/1/6 403/1/6
f 396/1/6 397/1/6 404/1/6
f 403/2/6 396/2/6 404/2/6
f 397/1/6 398/1/6 404/1/6
f 400/1/6 401/1/6 405/1/6
f 401/2/6 402/2/6 405/2/6
f 399/1/6 400/1/6 405/1/6
f 402/1/6 403/1/6 406/1/6
f 405/2/6 402/2/6 406/2/6
f 403/1/6 404/1/6 406/1/6
f 399/1/6 405/1/6 407/1/6
f 377/1/6 399/1/6 407/1/6
f 405/1/6 406/1/6 407/1/6
f 407/1/6 406/1/6 408/1/6
f 377/1/6 407/1/6 409/1/6
f 407/2/6 408/2/6 409/2/6
f 408/1/6 406/1/6 410/1/6
f 409/2/6 408/2/6 410/2/6
f 410/1/6 406/1/6 411/1/6
f 411/1/6 406/1/6 412/1/6
f 406/1/6 404/1/6 413/1/6
f 412/1/6 406/1/6 413/1/6
f 413/1/6 404/1/6 414/1/6
f 411/2/6 412/2/6 415/2/6
f 409/1/6 410/1/6 415/1/6
f 410/1/6 411/1/6 415/1/6
f 412/1/6 413/1/6 416/1/6
f 415/2/6 412/2/6 416/2/6
f 413/2/6 414/2/6 417/2/6
f 416/1/6 413/1/6 417/1/6
f 414/1/6 404/1/6 418/1/6
f 417/2/6 414/2/6 418/2/6
f 416/1/6 417/1/6 419/1/6
f 415/1/6 416/1/6 419/1/6
f 417/1/6 418/1/6 419/1/6
f 419/1/6 418/1/6 420/1/6
f 415/1/6 419/1/6 421/1/6
f 420/1/6 418/1/6 422/1/6
f 363/1/6 324/1/6 423/1/6
f 418/1/6 404/1/6 423/1/6
f 422/1/6 418/1/6 423/1/6
f 404/1/6 398/1/6 423/1/6
f 398/1/6 363/1/6 423/1/6
f 423/1/6 324/1/6 424/1/6
f 421/1/6 422/1/6 425/1/6
f 415/1/6 421/1/6 425/1/6
f 409/1/6 415/1/6 425/1/6
f 422/1/6 423/1/6 425/1/6
f 377/1/6 409/1/6 425/1/6
f 423/2/6 424/2/6 426/2/6
f 425/1/6 423/1/6 426/1/6
f 424/1/6 324/1/6 427/1/6
f 426/2/6 424/2/6 427/2/6
f 324/1/6 306/1/6 428/1/6
f 427/1/6 324/1/6 428/1/6
